<svg xmlns="http://www.w3.org/2000/svg" width="941" height="839" fill="none" viewBox="0 0 941 839"><g filter="url(#filter0_f_737_3512)"><path fill="#D3EDFE" d="M702 418.271C702 538.819 369.62 772 249.351 772C129.081 772 266.465 538.819 266.465 418.271C266.465 297.723 363.963 200 484.232 200C604.502 200 702 297.723 702 418.271Z"/></g><g filter="url(#filter0_f_737_3511)"><path fill="#FFEFBE" d="M705 393.5C705 500.367 618.275 587 511.294 587C404.313 587 200 500.367 200 393.5C200 286.633 404.313 200 511.294 200C618.275 200 705 286.633 705 393.5Z"/></g><g filter="url(#filter0_f_737_3510)"><path fill="#D9D6FF" d="M710.077 272.5C710.077 393.727 611.666 492 490.271 492C368.875 492 200 305.506 200 184.28C200 63.0534 368.875 53 490.271 53C862.574 115.489 710.077 151.273 710.077 272.5Z"/></g><defs><filter id="filter0_f_737_3512" width="902" height="972" x="0" y="0" colorInterpolationFilters="sRGB" filterUnits="userSpaceOnUse"><feFlood floodOpacity="0" result="BackgroundImageFix"/><feBlend in="SourceGraphic" in2="BackgroundImageFix" mode="normal" result="shape"/><feGaussianBlur result="effect1_foregroundBlur_737_3512" stdDeviation="100"/></filter><filter id="filter0_f_737_3511" width="905" height="787" x="0" y="0" colorInterpolationFilters="sRGB" filterUnits="userSpaceOnUse"><feFlood floodOpacity="0" result="BackgroundImageFix"/><feBlend in="SourceGraphic" in2="BackgroundImageFix" mode="normal" result="shape"/><feGaussianBlur result="effect1_foregroundBlur_737_3511" stdDeviation="100"/></filter><filter id="filter0_f_737_3510" width="941" height="839" x="0" y="-147" colorInterpolationFilters="sRGB" filterUnits="userSpaceOnUse"><feFlood floodOpacity="0" result="BackgroundImageFix"/><feBlend in="SourceGraphic" in2="BackgroundImageFix" mode="normal" result="shape"/><feGaussianBlur result="effect1_foregroundBlur_737_3510" stdDeviation="100"/></filter></defs></svg>